<svg width="104" height="50" viewBox="0 0 104 50" fill="none" xmlns="http://www.w3.org/2000/svg">
<rect width="104" height="50" fill="#22A4FF"/>
<path d="M15.392 6.28C16.4373 6.28 17.328 6.40267 18.064 6.648C18.8 6.89333 19.5307 7.33067 20.256 7.96L18.624 10.28C18.144 9.832 17.6533 9.512 17.152 9.32C16.6613 9.11733 16.112 9.016 15.504 9.016C15.1307 9.016 14.832 9.07467 14.608 9.192C14.384 9.29867 14.272 9.44267 14.272 9.624C14.272 9.74133 14.3787 9.832 14.592 9.896C14.8053 9.96 15.1787 10.04 15.712 10.136C17.2587 10.4133 18.368 10.8347 19.04 11.4C19.7227 11.9547 20.064 12.7387 20.064 13.752C20.064 14.4773 19.856 15.096 19.44 15.608C19.024 16.12 18.4587 16.5093 17.744 16.776C17.0293 17.032 16.2293 17.16 15.344 17.16C14.096 17.16 13.0987 17.0427 12.352 16.808C11.6053 16.5733 10.8747 16.1947 10.16 15.672L11.76 13.144C12.208 13.5813 12.6987 13.9067 13.232 14.12C13.7653 14.3227 14.3787 14.424 15.072 14.424C15.8507 14.424 16.24 14.264 16.24 13.944C16.24 13.7733 16.1173 13.6453 15.872 13.56C15.6267 13.4747 15.2267 13.384 14.672 13.288C13.8613 13.1387 13.168 12.968 12.592 12.776C12.0267 12.584 11.5253 12.2587 11.088 11.8C10.6613 11.3413 10.448 10.712 10.448 9.912C10.448 9.18667 10.64 8.552 11.024 8.008C11.408 7.464 11.968 7.04267 12.704 6.744C13.4507 6.43467 14.3467 6.28 15.392 6.28ZM31.1118 12.456C31.1118 15.592 29.4104 17.16 26.0078 17.16C22.6051 17.16 20.9038 15.592 20.9038 12.456V6.44H24.6478V12.744C24.6478 13.2773 24.7598 13.6827 24.9838 13.96C25.2184 14.2267 25.5598 14.36 26.0078 14.36C26.4558 14.36 26.7971 14.2267 27.0318 13.96C27.2664 13.6827 27.3838 13.2773 27.3838 12.744V6.44H31.1118V12.456ZM38.0719 6.44C41.0265 6.44 42.5039 7.672 42.5039 10.136C42.5039 11.2773 42.1305 12.1467 41.3839 12.744C40.6372 13.3413 39.5332 13.64 38.0719 13.64H36.1999V17H32.4719V6.44H38.0719ZM37.4639 11.08C37.9225 11.08 38.2532 11 38.4559 10.84C38.6692 10.68 38.7759 10.4293 38.7759 10.088C38.7759 9.74667 38.6692 9.496 38.4559 9.336C38.2532 9.176 37.9225 9.096 37.4639 9.096H36.1999V11.08H37.4639ZM52.7288 14.264V17H43.7688V6.44H52.5368V9.176H47.4968V10.488H51.5608V13.016H47.4968V14.264H52.7288ZM58.4564 13.496H57.4324V17H53.7844V6.44H59.5124C60.9204 6.44 61.9817 6.73867 62.6964 7.336C63.4217 7.92267 63.7844 8.80267 63.7844 9.976C63.7844 11.5227 63.1497 12.5627 61.8804 13.096L64.3764 17H60.3284L58.4564 13.496ZM57.4324 11.048H58.7604C59.2297 11.048 59.5604 10.9787 59.7524 10.84C59.955 10.6907 60.0564 10.4347 60.0564 10.072C60.0564 9.72 59.955 9.46933 59.7524 9.32C59.5604 9.17067 59.2297 9.096 58.7604 9.096H57.4324V11.048ZM16.896 28.984H14.048L13.552 31H9.84L13.264 20.44H17.744L21.184 31H17.376L16.896 28.984ZM16.352 26.664L15.504 23.144H15.456L15.04 24.936L14.608 26.664H16.352ZM26.9288 31H22.8328L19.8407 20.44H23.8568L25.0888 28.072L26.5768 20.44H29.7768L31.3448 28.024L32.5448 20.44H36.4167L33.4088 31H29.4568L28.6248 27.032L28.2088 24.328H28.1608L27.7448 27.032L26.9288 31ZM46.0725 28.264V31H37.1125V20.44H45.8805V23.176H40.8405V24.488H44.9045V27.016H40.8405V28.264H46.0725ZM51.7201 20.28C52.7655 20.28 53.6561 20.4027 54.3921 20.648C55.1281 20.8933 55.8588 21.3307 56.5841 21.96L54.9521 24.28C54.4721 23.832 53.9815 23.512 53.4801 23.32C52.9895 23.1173 52.4401 23.016 51.8321 23.016C51.4588 23.016 51.1601 23.0747 50.9361 23.192C50.7121 23.2987 50.6001 23.4427 50.6001 23.624C50.6001 23.7413 50.7068 23.832 50.9201 23.896C51.1335 23.96 51.5068 24.04 52.0401 24.136C53.5868 24.4133 54.6961 24.8347 55.3681 25.4C56.0508 25.9547 56.3921 26.7387 56.3921 27.752C56.3921 28.4773 56.1841 29.096 55.7681 29.608C55.3521 30.12 54.7868 30.5093 54.0721 30.776C53.3575 31.032 52.5575 31.16 51.6721 31.16C50.4241 31.16 49.4268 31.0427 48.6801 30.808C47.9335 30.5733 47.2028 30.1947 46.4881 29.672L48.0881 27.144C48.5361 27.5813 49.0268 27.9067 49.5601 28.12C50.0935 28.3227 50.7068 28.424 51.4001 28.424C52.1788 28.424 52.5681 28.264 52.5681 27.944C52.5681 27.7733 52.4455 27.6453 52.2001 27.56C51.9548 27.4747 51.5548 27.384 51.0001 27.288C50.1895 27.1387 49.4961 26.968 48.9201 26.776C48.3548 26.584 47.8535 26.2587 47.4161 25.8C46.9895 25.3413 46.7761 24.712 46.7761 23.912C46.7761 23.1867 46.9681 22.552 47.3521 22.008C47.7361 21.464 48.2961 21.0427 49.0321 20.744C49.7788 20.4347 50.6748 20.28 51.7201 20.28ZM62.5119 20.28C64.1972 20.28 65.5092 20.76 66.4479 21.72C67.3972 22.6693 67.8719 24.0027 67.8719 25.72C67.8719 27.4373 67.3972 28.776 66.4479 29.736C65.5092 30.6853 64.1972 31.16 62.5119 31.16C61.4025 31.16 60.4425 30.9467 59.6319 30.52C58.8319 30.0933 58.2132 29.4747 57.7759 28.664C57.3492 27.8427 57.1359 26.8613 57.1359 25.72C57.1359 24.5787 57.3492 23.6027 57.7759 22.792C58.2132 21.9707 58.8319 21.3467 59.6319 20.92C60.4425 20.4933 61.4025 20.28 62.5119 20.28ZM62.5119 23.08C61.9679 23.08 61.5679 23.2933 61.3119 23.72C61.0665 24.136 60.9439 24.8027 60.9439 25.72C60.9439 26.6373 61.0665 27.3093 61.3119 27.736C61.5679 28.152 61.9679 28.36 62.5119 28.36C63.0559 28.36 63.4505 28.152 63.6959 27.736C63.9412 27.3093 64.0639 26.6373 64.0639 25.72C64.0639 24.8027 63.9412 24.136 63.6959 23.72C63.4505 23.2933 63.0559 23.08 62.5119 23.08ZM82.6961 31H79.4481V27.336L79.4961 23.784H79.4481L77.4001 31H74.4241L72.4081 23.784H72.3441L72.3921 27.336V31H69.1281V20.44H74.3441L75.5601 25.128L76.0241 27.096H76.0561L76.5201 25.128L77.7361 20.44H82.6961V31ZM93.26 28.264V31H84.3V20.44H93.068V23.176H88.028V24.488H92.092V27.016H88.028V28.264H93.26ZM19.312 42.264V45H10.8V34.44H14.528V42.264H19.312ZM26.5835 42.984H23.7355L23.2395 45H19.5275L22.9515 34.44H27.4315L30.8715 45H27.0635L26.5835 42.984ZM26.0395 40.664L25.1915 37.144H25.1435L24.7275 38.936L24.2955 40.664H26.0395ZM31.5188 34.44H37.5668C38.9001 34.4507 39.8921 34.6907 40.5428 35.16C41.1934 35.6187 41.5188 36.3173 41.5188 37.256C41.5188 37.9067 41.3161 38.4507 40.9108 38.888C40.5161 39.3147 39.9241 39.5813 39.1348 39.688V39.704C40.0308 39.8 40.6974 40.0667 41.1348 40.504C41.5721 40.9413 41.7908 41.512 41.7908 42.216C41.7908 43.144 41.4761 43.8427 40.8468 44.312C40.2174 44.7707 39.2628 45 37.9828 45H31.5188V34.44ZM36.7188 38.536C37.3801 38.536 37.7108 38.28 37.7108 37.768C37.7108 37.256 37.3801 37 36.7188 37H35.0868V38.536H36.7188ZM36.9908 42.568C37.6521 42.568 37.9828 42.3067 37.9828 41.784C37.9828 41.2827 37.6521 41.032 36.9908 41.032H35.0868V42.568H36.9908ZM47.3764 34.28C48.4217 34.28 49.3124 34.4027 50.0484 34.648C50.7844 34.8933 51.515 35.3307 52.2404 35.96L50.6084 38.28C50.1284 37.832 49.6377 37.512 49.1364 37.32C48.6457 37.1173 48.0964 37.016 47.4884 37.016C47.115 37.016 46.8164 37.0747 46.5924 37.192C46.3684 37.2987 46.2564 37.4427 46.2564 37.624C46.2564 37.7413 46.363 37.832 46.5764 37.896C46.7897 37.96 47.163 38.04 47.6964 38.136C49.243 38.4133 50.3524 38.8347 51.0244 39.4C51.707 39.9547 52.0484 40.7387 52.0484 41.752C52.0484 42.4773 51.8404 43.096 51.4244 43.608C51.0084 44.12 50.443 44.5093 49.7284 44.776C49.0137 45.032 48.2137 45.16 47.3284 45.16C46.0804 45.16 45.083 45.0427 44.3364 44.808C43.5897 44.5733 42.859 44.1947 42.1444 43.672L43.7444 41.144C44.1924 41.5813 44.683 41.9067 45.2164 42.12C45.7497 42.3227 46.363 42.424 47.0564 42.424C47.835 42.424 48.2244 42.264 48.2244 41.944C48.2244 41.7733 48.1017 41.6453 47.8564 41.56C47.611 41.4747 47.211 41.384 46.6564 41.288C45.8457 41.1387 45.1524 40.968 44.5764 40.776C44.011 40.584 43.5097 40.2587 43.0724 39.8C42.6457 39.3413 42.4324 38.712 42.4324 37.912C42.4324 37.1867 42.6244 36.552 43.0084 36.008C43.3924 35.464 43.9524 35.0427 44.6884 34.744C45.435 34.4347 46.331 34.28 47.3764 34.28Z" fill="white"/>
</svg>
