<svg width="443" height="51" viewBox="0 0 443 51" fill="none" xmlns="http://www.w3.org/2000/svg">
<rect width="443" height="50" fill="#22A4FF"/>
<path d="M22.132 12.88C24.484 12.88 26.488 13.156 28.144 13.708C29.8 14.26 31.444 15.244 33.076 16.66L29.404 21.88C28.324 20.872 27.22 20.152 26.092 19.72C24.988 19.264 23.752 19.036 22.384 19.036C21.544 19.036 20.872 19.168 20.368 19.432C19.864 19.672 19.612 19.996 19.612 20.404C19.612 20.668 19.852 20.872 20.332 21.016C20.812 21.16 21.652 21.34 22.852 21.556C26.332 22.18 28.828 23.128 30.34 24.4C31.876 25.648 32.644 27.412 32.644 29.692C32.644 31.324 32.176 32.716 31.24 33.868C30.304 35.02 29.032 35.896 27.424 36.496C25.816 37.072 24.016 37.36 22.024 37.36C19.216 37.36 16.972 37.096 15.292 36.568C13.612 36.04 11.968 35.188 10.36 34.012L13.96 28.324C14.968 29.308 16.072 30.04 17.272 30.52C18.472 30.976 19.852 31.204 21.412 31.204C23.164 31.204 24.04 30.844 24.04 30.124C24.04 29.74 23.764 29.452 23.212 29.26C22.66 29.068 21.76 28.864 20.512 28.648C18.688 28.312 17.128 27.928 15.832 27.496C14.56 27.064 13.432 26.332 12.448 25.3C11.488 24.268 11.008 22.852 11.008 21.052C11.008 19.42 11.44 17.992 12.304 16.768C13.168 15.544 14.428 14.596 16.084 13.924C17.764 13.228 19.78 12.88 22.132 12.88ZM57.5014 26.776C57.5014 33.832 53.6734 37.36 46.0174 37.36C38.3614 37.36 34.5334 33.832 34.5334 26.776V13.24H42.9574V27.424C42.9574 28.624 43.2094 29.536 43.7134 30.16C44.2414 30.76 45.0094 31.06 46.0174 31.06C47.0254 31.06 47.7934 30.76 48.3214 30.16C48.8494 29.536 49.1134 28.624 49.1134 27.424V13.24H57.5014V26.776ZM73.1617 13.24C79.8097 13.24 83.1337 16.012 83.1337 21.556C83.1337 24.124 82.2937 26.08 80.6137 27.424C78.9337 28.768 76.4497 29.44 73.1617 29.44H68.9497V37H60.5617V13.24H73.1617ZM71.7937 23.68C72.8257 23.68 73.5697 23.5 74.0257 23.14C74.5057 22.78 74.7457 22.216 74.7457 21.448C74.7457 20.68 74.5057 20.116 74.0257 19.756C73.5697 19.396 72.8257 19.216 71.7937 19.216H68.9497V23.68H71.7937ZM106.14 30.844V37H85.9797V13.24H105.708V19.396H94.3677V22.348H103.512V28.036H94.3677V30.844H106.14ZM119.027 29.116H116.723V37H108.515V13.24H121.403C124.571 13.24 126.959 13.912 128.567 15.256C130.199 16.576 131.015 18.556 131.015 21.196C131.015 24.676 129.587 27.016 126.731 28.216L132.347 37H123.239L119.027 29.116ZM116.723 23.608H119.711C120.767 23.608 121.511 23.452 121.943 23.14C122.399 22.804 122.627 22.228 122.627 21.412C122.627 20.62 122.399 20.056 121.943 19.72C121.511 19.384 120.767 19.216 119.711 19.216H116.723V23.608ZM156.262 32.464H149.854L148.738 37H140.386L148.09 13.24H158.17L165.91 37H157.342L156.262 32.464ZM155.038 27.244L153.13 19.324H153.022L152.086 23.356L151.114 27.244H155.038ZM178.836 37H169.62L162.888 13.24H171.924L174.696 30.412L178.044 13.24H185.244L188.772 30.304L191.472 13.24H200.184L193.416 37H184.524L182.652 28.072L181.716 21.988H181.608L180.672 28.072L178.836 37ZM221.909 30.844V37H201.749V13.24H221.477V19.396H210.137V22.348H219.281V28.036H210.137V30.844H221.909ZM234.616 12.88C236.968 12.88 238.972 13.156 240.628 13.708C242.284 14.26 243.928 15.244 245.56 16.66L241.888 21.88C240.808 20.872 239.704 20.152 238.576 19.72C237.472 19.264 236.236 19.036 234.868 19.036C234.028 19.036 233.356 19.168 232.852 19.432C232.348 19.672 232.096 19.996 232.096 20.404C232.096 20.668 232.336 20.872 232.816 21.016C233.296 21.16 234.136 21.34 235.336 21.556C238.816 22.18 241.312 23.128 242.824 24.4C244.36 25.648 245.128 27.412 245.128 29.692C245.128 31.324 244.66 32.716 243.724 33.868C242.788 35.02 241.516 35.896 239.908 36.496C238.3 37.072 236.5 37.36 234.508 37.36C231.7 37.36 229.456 37.096 227.776 36.568C226.096 36.04 224.452 35.188 222.844 34.012L226.444 28.324C227.452 29.308 228.556 30.04 229.756 30.52C230.956 30.976 232.336 31.204 233.896 31.204C235.648 31.204 236.524 30.844 236.524 30.124C236.524 29.74 236.248 29.452 235.696 29.26C235.144 29.068 234.244 28.864 232.996 28.648C231.172 28.312 229.612 27.928 228.316 27.496C227.044 27.064 225.916 26.332 224.932 25.3C223.972 24.268 223.492 22.852 223.492 21.052C223.492 19.42 223.924 17.992 224.788 16.768C225.652 15.544 226.912 14.596 228.568 13.924C230.248 13.228 232.264 12.88 234.616 12.88ZM258.898 12.88C262.69 12.88 265.642 13.96 267.754 16.12C269.89 18.256 270.958 21.256 270.958 25.12C270.958 28.984 269.89 31.996 267.754 34.156C265.642 36.292 262.69 37.36 258.898 37.36C256.402 37.36 254.242 36.88 252.418 35.92C250.618 34.96 249.226 33.568 248.242 31.744C247.282 29.896 246.802 27.688 246.802 25.12C246.802 22.552 247.282 20.356 248.242 18.532C249.226 16.684 250.618 15.28 252.418 14.32C254.242 13.36 256.402 12.88 258.898 12.88ZM258.898 19.18C257.674 19.18 256.774 19.66 256.198 20.62C255.646 21.556 255.37 23.056 255.37 25.12C255.37 27.184 255.646 28.696 256.198 29.656C256.774 30.592 257.674 31.06 258.898 31.06C260.122 31.06 261.01 30.592 261.562 29.656C262.114 28.696 262.39 27.184 262.39 25.12C262.39 23.056 262.114 21.556 261.562 20.62C261.01 19.66 260.122 19.18 258.898 19.18ZM304.312 37H297.004V28.756L297.112 20.764H297.004L292.396 37H285.7L281.164 20.764H281.02L281.128 28.756V37H273.784V13.24H285.52L288.256 23.788L289.3 28.216H289.372L290.416 23.788L293.152 13.24H304.312V37ZM328.081 30.844V37H307.921V13.24H327.649V19.396H316.309V22.348H325.453V28.036H316.309V30.844H328.081ZM358.608 30.844V37H339.456V13.24H347.844V30.844H358.608ZM374.969 32.464H368.561L367.445 37H359.093L366.797 13.24H376.877L384.617 37H376.049L374.969 32.464ZM373.745 27.244L371.837 19.324H371.729L370.793 23.356L369.821 27.244H373.745ZM386.073 13.24H399.681C402.681 13.264 404.913 13.804 406.377 14.86C407.841 15.892 408.573 17.464 408.573 19.576C408.573 21.04 408.117 22.264 407.205 23.248C406.317 24.208 404.985 24.808 403.209 25.048V25.084C405.225 25.3 406.725 25.9 407.709 26.884C408.693 27.868 409.185 29.152 409.185 30.736C409.185 32.824 408.477 34.396 407.061 35.452C405.645 36.484 403.497 37 400.617 37H386.073V13.24ZM397.773 22.456C399.261 22.456 400.005 21.88 400.005 20.728C400.005 19.576 399.261 19 397.773 19H394.101V22.456H397.773ZM398.385 31.528C399.873 31.528 400.617 30.94 400.617 29.764C400.617 28.636 399.873 28.072 398.385 28.072H394.101V31.528H398.385ZM421.753 12.88C424.105 12.88 426.109 13.156 427.765 13.708C429.421 14.26 431.065 15.244 432.697 16.66L429.025 21.88C427.945 20.872 426.841 20.152 425.713 19.72C424.609 19.264 423.373 19.036 422.005 19.036C421.165 19.036 420.493 19.168 419.989 19.432C419.485 19.672 419.233 19.996 419.233 20.404C419.233 20.668 419.473 20.872 419.953 21.016C420.433 21.16 421.273 21.34 422.473 21.556C425.953 22.18 428.449 23.128 429.961 24.4C431.497 25.648 432.265 27.412 432.265 29.692C432.265 31.324 431.797 32.716 430.861 33.868C429.925 35.02 428.653 35.896 427.045 36.496C425.437 37.072 423.637 37.36 421.645 37.36C418.837 37.36 416.593 37.096 414.913 36.568C413.233 36.04 411.589 35.188 409.981 34.012L413.581 28.324C414.589 29.308 415.693 30.04 416.893 30.52C418.093 30.976 419.473 31.204 421.033 31.204C422.785 31.204 423.661 30.844 423.661 30.124C423.661 29.74 423.385 29.452 422.833 29.26C422.281 29.068 421.381 28.864 420.133 28.648C418.309 28.312 416.749 27.928 415.453 27.496C414.181 27.064 413.053 26.332 412.069 25.3C411.109 24.268 410.629 22.852 410.629 21.052C410.629 19.42 411.061 17.992 411.925 16.768C412.789 15.544 414.049 14.596 415.705 13.924C417.385 13.228 419.401 12.88 421.753 12.88Z" fill="white"/>
</svg>
